<?xml version="1.0" encoding="UTF-8"?>
<svg id="Capa_1" data-name="Capa 1" xmlns="http://www.w3.org/2000/svg" viewBox="0 0 1488.62 432.9">
  <path d="m158.33,236.45c34.98-.13,69.97-.14,104.95-.52,5.14-.06,7.85,2.73,10.87,5.8,32.7,33.26,65.41,66.52,98.12,99.78,12.62,12.83,25.1,25.8,37.94,38.41,3.38,3.32,5.03,6.58,4.91,11.31-.28,11.32-.11,22.66-.22,33.99-.07,7.47-.14,7.58-7.7,7.59-40.99.04-81.98.02-122.97.03-9,0-18-.15-26.99.08-4.6.12-8.17-1.04-11.56-4.43-27.8-27.81-55.7-55.51-83.74-83.07-3.79-3.72-4.34-7.81-4.36-12.63-.12-31.33-.38-62.65-.6-93.98.45-.78.9-1.56,1.35-2.34Z" fill="#1e3e62"/>
  <path d="m0,101.3C0,70.33-.02,39.36.02,8.39.03.17.13.04,7.96.03,44.92-.01,81.89-.01,118.85.04c7.61.01,7.75.15,7.75,7.6.01,62.61-.01,125.21-.08,187.82,0,7.77-.15,7.99-8.5,8.01-36.96.13-73.93.15-110.89.13-6.86,0-7.04-.16-7.06-7.41-.07-31.64-.03-63.27-.03-94.91H0Z" fill="#1e3f63"/>
  <path d="m397.21,1.24c.04,2.73-2.24,3.89-3.77,5.43-62.29,62.95-124.68,125.8-186.84,188.88-5.38,5.46-10.94,7.91-18.44,7.49-7.3-.41-14.65.06-21.97-.05-8.14-.11-8.07-.21-8.39-8.48-.9-23.94-.95-47.88-.16-71.84.32-9.62-.4-19.28-.73-28.92-.2-5.98,1.79-10.68,6.2-15.04,23.89-23.66,47.64-47.47,71.13-71.51C239.03,2.3,243.87.08,250.77.12c46.61.22,93.23.06,139.84.09,2.18,0,4.59-.86,6.6,1.03Z" fill="#85919e"/>
  <path d="m.08,333.46c0-29.63-.03-59.26.02-88.88.01-8.19.12-8.32,8.2-8.33,36.62-.05,73.24-.06,109.85,0,8.18.01,8.31.17,8.32,8.3.03,59.92.03,119.84-.02,179.76,0,8.24-.14,8.37-8.24,8.39-36.62.05-73.24.04-109.85-.01-8.08-.01-8.22-.14-8.24-8.33-.06-30.29-.03-60.59-.03-90.88h-.02Z" fill="#6b96b8"/>
  <path d="m1054.53,138.77c-1.16.73-2.32,1.45-3.47,2.18-.02-2.6,1.56-2.67,3.47-2.18Z" fill="#85919e"/>
  <path d="m806.45,136.61c-.55.71-1.1,1.42-1.65,2.13-.41-1.45.12-2.17,1.65-2.13Z" fill="#85919e"/>
  <path d="m1228.55,138.8c-.84.45-1.68.9-2.52,1.36.28-1.49,1.17-1.84,2.52-1.36Z" fill="#85919e"/>
  <path d="m1456.57,138.88c-.81.47-1.61.93-2.42,1.4.29-1.35,1.08-1.86,2.42-1.4Z" fill="#85919e"/>
  <path d="m1488.62,140.2c-.82-.44-1.64-.88-2.46-1.32,1.32-.49,2.1.02,2.46,1.32Z" fill="#85919e"/>
  <path d="m158.33,236.45c-.45.78-.9,1.56-1.35,2.34-.58-1.38-.13-2.15,1.35-2.34Z" fill="#85919e"/>
  <g>
    <path d="m644.64,268.89l-19.94.04-47.29-43.96c-1.76-1.65-2.85-2.77-3.24-3.35h-.34l.09,47.41-14.32.03-.17-96.29,14.32-.03.08,45.26h.34c.79-.99,1.87-2.08,3.23-3.3l45.6-42.05,17.81-.03-52.32,46.29,56.16,49.99Z" fill="#274760" stroke="#274760" stroke-miterlimit="10" stroke-width="5"/>
    <path d="m797.95,229.66c.05,27.04-15.41,40.59-46.37,40.64-29.65.05-44.5-12.92-44.55-38.93l-.11-58.89,14.32-.03.11,58.15c.04,19.74,10.62,29.59,31.75,29.55,20.39-.04,30.57-9.59,30.54-28.66l-.11-59.16,14.32-.03.1,57.34Z" fill="#274760" stroke="#274760" stroke-miterlimit="10" stroke-width="5"/>
    <path d="m970.91,268.3l-15.85.03-13-26.97-51.81.09-12.14,27.02-15.93.03,46.69-96.38,14.83-.03,47.21,96.21Zm-33.55-37.07l-19.25-40.99c-.63-1.34-1.26-3.49-1.89-6.44h-.34c-.56,2.73-1.21,4.88-1.95,6.45l-18.93,41.06,42.35-.08Z" fill="#274760" stroke="#274760" stroke-miterlimit="10" stroke-width="5"/>
    <path d="m1036.69,268.18l-.17-96.29,33.74-.06c43.06-.08,64.62,15.53,64.67,46.82.03,14.86-5.93,26.82-17.87,35.86s-27.94,13.58-47.99,13.62l-32.38.06Zm14.16-86.11l.14,75.88,18.24-.03c16.02-.03,28.48-3.43,37.39-10.21,8.91-6.77,13.35-16.36,13.33-28.76-.04-24.67-16.71-36.97-50-36.91l-19.09.03Z" fill="#274760" stroke="#274760" stroke-miterlimit="10" stroke-width="5"/>
    <path d="m1294.46,267.71l-17.04.03-20.5-26.96c-1.88-2.5-3.7-4.64-5.47-6.4-1.76-1.76-3.57-3.21-5.42-4.32-1.85-1.12-3.84-1.93-5.97-2.44-2.13-.51-4.53-.76-7.2-.76l-11.76.02.07,40.96-14.32.03-.17-96.29,36.47-.07c5.34,0,10.27.51,14.79,1.55,4.52,1.04,8.44,2.64,11.77,4.78s5.93,4.81,7.81,8.01c1.88,3.2,2.82,6.95,2.83,11.24,0,3.36-.63,6.44-1.9,9.24-1.27,2.8-3.09,5.3-5.44,7.5-2.35,2.2-5.19,4.07-8.51,5.62-3.32,1.55-7.05,2.76-11.2,3.61v.27c2.05.71,3.82,1.53,5.33,2.44,1.51.92,2.94,2,4.31,3.25,1.37,1.25,2.72,2.67,4.06,4.26,1.34,1.59,2.83,3.43,4.48,5.53l22.97,28.9Zm-73.44-85.95l.06,34.92,19.43-.04c3.58,0,6.89-.44,9.92-1.29,3.04-.85,5.66-2.08,7.88-3.67,2.21-1.59,3.94-3.54,5.19-5.85,1.24-2.31,1.87-4.89,1.86-7.76,0-5.15-2.13-9.16-6.37-12.04-4.24-2.88-10.36-4.31-18.37-4.3l-19.6.04Z" fill="#274760" stroke="#274760" stroke-miterlimit="10" stroke-width="5"/>
    <path d="m1453.63,267.42l-15.85.03-13-26.97-51.81.09-12.14,27.02-15.93.03,46.69-96.38,14.83-.03,47.21,96.21Zm-33.55-37.07l-19.25-40.99c-.63-1.34-1.26-3.49-1.89-6.44h-.34c-.56,2.73-1.21,4.88-1.95,6.45l-18.93,41.06,42.35-.08Z" fill="#274760" stroke="#274760" stroke-miterlimit="10" stroke-width="5"/>
  </g>
</svg>